solid OpenSCAD_Model
  facet normal 0 1 0
    outer loop
      vertex -1.07456 28.4934 31
      vertex -13.6254 28.4934 3.02545e-15
      vertex -13.6254 28.4934 31
    endloop
  endfacet
  facet normal -0 1 0
    outer loop
      vertex -13.6254 28.4934 3.02545e-15
      vertex -1.07456 28.4934 31
      vertex -1.07456 28.4934 2.38601e-16
    endloop
  endfacet
  facet normal 0 1 -0
    outer loop
      vertex -13.5 28.4934 31.8
      vertex -13.6254 28.4934 32.2
      vertex -13.5 28.4934 32.2
    endloop
  endfacet
  facet normal 0 1 0
    outer loop
      vertex -13.6254 28.4934 32.2
      vertex -13.5 28.4934 31.8
      vertex -13.6254 28.4934 31.8
    endloop
  endfacet
  facet normal 0 1 -0
    outer loop
      vertex -1.07456 28.4934 31.8
      vertex -1.2 28.4934 32.2
      vertex -1.07456 28.4934 32.2
    endloop
  endfacet
  facet normal 0 1 0
    outer loop
      vertex -1.2 28.4934 32.2
      vertex -1.07456 28.4934 31.8
      vertex -1.2 28.4934 31.8
    endloop
  endfacet
  facet normal -0.207911 -0.978148 0
    outer loop
      vertex -13.8708 0.058732 3.07994e-15
      vertex -13.6254 0.00657368 32.2
      vertex -13.8708 0.058732 32.2
    endloop
  endfacet
  facet normal -0.207911 -0.978148 -0
    outer loop
      vertex -13.6254 0.00657368 32.2
      vertex -13.8708 0.058732 3.07994e-15
      vertex -13.6254 0.00657368 3.02545e-15
    endloop
  endfacet
  facet normal 0.951057 -0.309017 0
    outer loop
      vertex -0.103745 0.711916 32.2
      vertex -0.0262222 0.950505 5.8225e-18
      vertex -0.0262222 0.950505 32.2
    endloop
  endfacet
  facet normal 0.951057 -0.309017 0
    outer loop
      vertex -0.0262222 0.950505 5.8225e-18
      vertex -0.103745 0.711916 32.2
      vertex -0.103745 0.711916 2.30359e-17
    endloop
  endfacet
  facet normal 0 0 1
    outer loop
      vertex -13.8708 28.4413 32.2
      vertex -13.5 28.4934 32.2
      vertex -13.6254 28.4934 32.2
    endloop
  endfacet
  facet normal 0 0 1
    outer loop
      vertex -1.2 1.2 32.2
      vertex -4.66311 0.724747 32.2
      vertex -4.65 0.599999 32.2
    endloop
  endfacet
  facet normal 0 0 1
    outer loop
      vertex -1.2 1.2 32.2
      vertex -4.70187 0.844042 32.2
      vertex -4.66311 0.724747 32.2
    endloop
  endfacet
  facet normal 0 0 1
    outer loop
      vertex -1.2 1.2 32.2
      vertex -4.76459 0.952671 32.2
      vertex -4.70187 0.844042 32.2
    endloop
  endfacet
  facet normal 0 0 1
    outer loop
      vertex -1.2 1.2 32.2
      vertex -4.84852 1.04589 32.2
      vertex -4.76459 0.952671 32.2
    endloop
  endfacet
  facet normal 0 0 1
    outer loop
      vertex -1.2 1.2 32.2
      vertex -4.95 1.11961 32.2
      vertex -4.84852 1.04589 32.2
    endloop
  endfacet
  facet normal 0 0 1
    outer loop
      vertex -1.2 1.2 32.2
      vertex -5.06459 1.17063 32.2
      vertex -4.95 1.11961 32.2
    endloop
  endfacet
  facet normal 0 0 1
    outer loop
      vertex -1.2 1.2 32.2
      vertex -5.18728 1.19671 32.2
      vertex -5.06459 1.17063 32.2
    endloop
  endfacet
  facet normal 0 0 1
    outer loop
      vertex -1.2 1.2 32.2
      vertex -9.51272 1.19671 32.2
      vertex -5.18728 1.19671 32.2
    endloop
  endfacet
  facet normal 0 0 1
    outer loop
      vertex -10.0369 0.724747 32.2
      vertex -13.5 1.2 32.2
      vertex -10.05 0.599999 32.2
    endloop
  endfacet
  facet normal 0 0 1
    outer loop
      vertex -9.99813 0.844042 32.2
      vertex -13.5 1.2 32.2
      vertex -10.0369 0.724747 32.2
    endloop
  endfacet
  facet normal 0 0 1
    outer loop
      vertex -9.93541 0.952671 32.2
      vertex -13.5 1.2 32.2
      vertex -9.99813 0.844042 32.2
    endloop
  endfacet
  facet normal 0 0 1
    outer loop
      vertex -9.85148 1.04589 32.2
      vertex -13.5 1.2 32.2
      vertex -9.93541 0.952671 32.2
    endloop
  endfacet
  facet normal 0 0 1
    outer loop
      vertex -9.75 1.11961 32.2
      vertex -13.5 1.2 32.2
      vertex -9.85148 1.04589 32.2
    endloop
  endfacet
  facet normal 0 0 1
    outer loop
      vertex -9.63541 1.17063 32.2
      vertex -13.5 1.2 32.2
      vertex -9.75 1.11961 32.2
    endloop
  endfacet
  facet normal 0 0 1
    outer loop
      vertex -9.51272 1.19671 32.2
      vertex -13.5 1.2 32.2
      vertex -9.63541 1.17063 32.2
    endloop
  endfacet
  facet normal -0 0 1
    outer loop
      vertex -13.5 1.2 32.2
      vertex -9.51272 1.19671 32.2
      vertex -1.2 1.2 32.2
    endloop
  endfacet
  facet normal 0 0 1
    outer loop
      vertex -1.2 28.4934 32.2
      vertex 7.14984e-15 27.3 32.2
      vertex -0.0262222 27.5495 32.2
    endloop
  endfacet
  facet normal 0 0 1
    outer loop
      vertex 7.14984e-15 27.3 32.2
      vertex -1.2 1.2 32.2
      vertex 7.14984e-15 1.2 32.2
    endloop
  endfacet
  facet normal 0 0 1
    outer loop
      vertex -1.2 28.4934 32.2
      vertex -0.0262222 27.5495 32.2
      vertex -0.103745 27.7881 32.2
    endloop
  endfacet
  facet normal 0 0 1
    outer loop
      vertex 7.14984e-15 1.2 32.2
      vertex -1.2 1.2 32.2
      vertex -0.0262222 0.950505 32.2
    endloop
  endfacet
  facet normal 0 0 1
    outer loop
      vertex -1.2 28.4934 32.2
      vertex -0.103745 27.7881 32.2
      vertex -0.229179 28.0053 32.2
    endloop
  endfacet
  facet normal 0 0 1
    outer loop
      vertex -0.0262222 0.950505 32.2
      vertex -1.2 1.2 32.2
      vertex -0.103745 0.711916 32.2
    endloop
  endfacet
  facet normal 0 0 1
    outer loop
      vertex -1.2 28.4934 32.2
      vertex -0.229179 28.0053 32.2
      vertex -0.397043 28.1918 32.2
    endloop
  endfacet
  facet normal 0 0 1
    outer loop
      vertex -0.103745 0.711916 32.2
      vertex -1.2 1.2 32.2
      vertex -0.229179 0.494658 32.2
    endloop
  endfacet
  facet normal 0 0 1
    outer loop
      vertex -1.2 28.4934 32.2
      vertex -0.397043 28.1918 32.2
      vertex -0.599999 28.3392 32.2
    endloop
  endfacet
  facet normal 0 0 1
    outer loop
      vertex -0.229179 0.494658 32.2
      vertex -1.2 1.2 32.2
      vertex -0.397043 0.308226 32.2
    endloop
  endfacet
  facet normal 0 0 1
    outer loop
      vertex -1.2 28.4934 32.2
      vertex -0.599999 28.3392 32.2
      vertex -0.829179 28.4413 32.2
    endloop
  endfacet
  facet normal 0 0 1
    outer loop
      vertex -0.397043 0.308226 32.2
      vertex -1.2 1.2 32.2
      vertex -0.599999 0.160769 32.2
    endloop
  endfacet
  facet normal -0 0 1
    outer loop
      vertex -1.2 28.4934 32.2
      vertex -0.829179 28.4413 32.2
      vertex -1.07456 28.4934 32.2
    endloop
  endfacet
  facet normal 0 0 1
    outer loop
      vertex -0.599999 0.160769 32.2
      vertex -1.2 1.2 32.2
      vertex -0.829179 0.058732 32.2
    endloop
  endfacet
  facet normal 0 0 1
    outer loop
      vertex 7.14984e-15 27.3 32.2
      vertex -1.2 28.4934 32.2
      vertex -1.2 1.2 32.2
    endloop
  endfacet
  facet normal 0 0 1
    outer loop
      vertex -0.829179 0.058732 32.2
      vertex -1.2 1.2 32.2
      vertex -1.07456 0.00657368 32.2
    endloop
  endfacet
  facet normal -0 0 1
    outer loop
      vertex -4.65 0.599999 32.2
      vertex -1.07456 0.00657368 32.2
      vertex -1.2 1.2 32.2
    endloop
  endfacet
  facet normal -0 0 1
    outer loop
      vertex -4.66311 0.475252 32.2
      vertex -1.07456 0.00657368 32.2
      vertex -4.65 0.599999 32.2
    endloop
  endfacet
  facet normal -0 0 1
    outer loop
      vertex -4.70187 0.355958 32.2
      vertex -1.07456 0.00657368 32.2
      vertex -4.66311 0.475252 32.2
    endloop
  endfacet
  facet normal -0 0 1
    outer loop
      vertex -4.76459 0.247329 32.2
      vertex -1.07456 0.00657368 32.2
      vertex -4.70187 0.355958 32.2
    endloop
  endfacet
  facet normal -0 0 1
    outer loop
      vertex -4.84852 0.154113 32.2
      vertex -1.07456 0.00657368 32.2
      vertex -4.76459 0.247329 32.2
    endloop
  endfacet
  facet normal -0 0 1
    outer loop
      vertex -4.95 0.0803843 32.2
      vertex -1.07456 0.00657368 32.2
      vertex -4.84852 0.154113 32.2
    endloop
  endfacet
  facet normal -0 0 1
    outer loop
      vertex -5.06459 0.0293655 32.2
      vertex -1.07456 0.00657368 32.2
      vertex -4.95 0.0803843 32.2
    endloop
  endfacet
  facet normal 0 0 1
    outer loop
      vertex -1.07456 0.00657368 32.2
      vertex -5.06459 0.0293655 32.2
      vertex -5.17182 0.00657368 32.2
    endloop
  endfacet
  facet normal 0 0 1
    outer loop
      vertex -13.6254 0.00657368 32.2
      vertex -10.05 0.599999 32.2
      vertex -13.5 1.2 32.2
    endloop
  endfacet
  facet normal 0 0 1
    outer loop
      vertex -10.05 0.599999 32.2
      vertex -13.6254 0.00657368 32.2
      vertex -10.0369 0.475252 32.2
    endloop
  endfacet
  facet normal 0 0 1
    outer loop
      vertex -10.0369 0.475252 32.2
      vertex -13.6254 0.00657368 32.2
      vertex -9.99813 0.355958 32.2
    endloop
  endfacet
  facet normal 0 0 1
    outer loop
      vertex -9.99813 0.355958 32.2
      vertex -13.6254 0.00657368 32.2
      vertex -9.93541 0.247329 32.2
    endloop
  endfacet
  facet normal 0 0 1
    outer loop
      vertex -9.93541 0.247329 32.2
      vertex -13.6254 0.00657368 32.2
      vertex -9.85148 0.154113 32.2
    endloop
  endfacet
  facet normal 0 0 1
    outer loop
      vertex -9.85148 0.154113 32.2
      vertex -13.6254 0.00657368 32.2
      vertex -9.75 0.0803843 32.2
    endloop
  endfacet
  facet normal 0 0 1
    outer loop
      vertex -9.63541 0.0293655 32.2
      vertex -13.6254 0.00657368 32.2
      vertex -9.52818 0.00657368 32.2
    endloop
  endfacet
  facet normal 0 0 1
    outer loop
      vertex -9.75 0.0803843 32.2
      vertex -13.6254 0.00657368 32.2
      vertex -9.63541 0.0293655 32.2
    endloop
  endfacet
  facet normal 0 0 1
    outer loop
      vertex -13.5 28.4934 32.2
      vertex -14.7 27.3 32.2
      vertex -13.5 1.2 32.2
    endloop
  endfacet
  facet normal 0 0 1
    outer loop
      vertex -14.1 28.3392 32.2
      vertex -13.5 28.4934 32.2
      vertex -13.8708 28.4413 32.2
    endloop
  endfacet
  facet normal 0 0 1
    outer loop
      vertex -14.7 1.2 32.2
      vertex -13.5 1.2 32.2
      vertex -14.7 27.3 32.2
    endloop
  endfacet
  facet normal 0 0 1
    outer loop
      vertex -13.5 28.4934 32.2
      vertex -14.1 28.3392 32.2
      vertex -14.7 27.3 32.2
    endloop
  endfacet
  facet normal 0 -0 1
    outer loop
      vertex -14.6738 0.950505 32.2
      vertex -13.5 1.2 32.2
      vertex -14.7 1.2 32.2
    endloop
  endfacet
  facet normal 0 0 1
    outer loop
      vertex -14.7 27.3 32.2
      vertex -14.1 28.3392 32.2
      vertex -14.303 28.1918 32.2
    endloop
  endfacet
  facet normal 0 0 1
    outer loop
      vertex -13.5 1.2 32.2
      vertex -13.8708 0.058732 32.2
      vertex -13.6254 0.00657368 32.2
    endloop
  endfacet
  facet normal 0 0 1
    outer loop
      vertex -14.7 27.3 32.2
      vertex -14.303 28.1918 32.2
      vertex -14.4708 28.0053 32.2
    endloop
  endfacet
  facet normal 0 0 1
    outer loop
      vertex -13.5 1.2 32.2
      vertex -14.1 0.160769 32.2
      vertex -13.8708 0.058732 32.2
    endloop
  endfacet
  facet normal 0 0 1
    outer loop
      vertex -14.7 27.3 32.2
      vertex -14.4708 28.0053 32.2
      vertex -14.5963 27.7881 32.2
    endloop
  endfacet
  facet normal 0 0 1
    outer loop
      vertex -13.5 1.2 32.2
      vertex -14.303 0.308226 32.2
      vertex -14.1 0.160769 32.2
    endloop
  endfacet
  facet normal 0 0 1
    outer loop
      vertex -14.7 27.3 32.2
      vertex -14.5963 27.7881 32.2
      vertex -14.6738 27.5495 32.2
    endloop
  endfacet
  facet normal 0 0 1
    outer loop
      vertex -13.5 1.2 32.2
      vertex -14.4708 0.494658 32.2
      vertex -14.303 0.308226 32.2
    endloop
  endfacet
  facet normal 0 0 1
    outer loop
      vertex -13.5 1.2 32.2
      vertex -14.5963 0.711916 32.2
      vertex -14.4708 0.494658 32.2
    endloop
  endfacet
  facet normal 0 0 1
    outer loop
      vertex -13.5 1.2 32.2
      vertex -14.6738 0.950505 32.2
      vertex -14.5963 0.711916 32.2
    endloop
  endfacet
  facet normal 0 -1 0
    outer loop
      vertex -13.6254 0.00657368 32.2
      vertex -9.52818 0.00657368 31
      vertex -9.52818 0.00657368 32.2
    endloop
  endfacet
  facet normal 0 -1 -0
    outer loop
      vertex -9.52818 0.00657368 31
      vertex -13.6254 0.00657368 3.02545e-15
      vertex -5.17182 0.00657368 31
    endloop
  endfacet
  facet normal 0 -1 0
    outer loop
      vertex -13.6254 0.00657368 3.02545e-15
      vertex -9.52818 0.00657368 31
      vertex -13.6254 0.00657368 32.2
    endloop
  endfacet
  facet normal 0 -1 0
    outer loop
      vertex -5.17182 0.00657368 31
      vertex -1.07456 0.00657368 32.2
      vertex -5.17182 0.00657368 32.2
    endloop
  endfacet
  facet normal 0 -1 0
    outer loop
      vertex -1.07456 0.00657368 2.38601e-16
      vertex -5.17182 0.00657368 31
      vertex -13.6254 0.00657368 3.02545e-15
    endloop
  endfacet
  facet normal 0 -1 0
    outer loop
      vertex -5.17182 0.00657368 31
      vertex -1.07456 0.00657368 2.38601e-16
      vertex -1.07456 0.00657368 32.2
    endloop
  endfacet
  facet normal -0.994522 0.104529 0
    outer loop
      vertex -14.7 27.3 3.26406e-15
      vertex -14.6738 27.5495 32.2
      vertex -14.6738 27.5495 3.25823e-15
    endloop
  endfacet
  facet normal -0.994522 0.104529 0
    outer loop
      vertex -14.6738 27.5495 32.2
      vertex -14.7 27.3 3.26406e-15
      vertex -14.7 27.3 32.2
    endloop
  endfacet
  facet normal -0.994522 -0.104529 0
    outer loop
      vertex -14.6738 0.950505 3.25823e-15
      vertex -14.7 1.2 32.2
      vertex -14.7 1.2 3.26406e-15
    endloop
  endfacet
  facet normal -0.994522 -0.104529 0
    outer loop
      vertex -14.7 1.2 32.2
      vertex -14.6738 0.950505 3.25823e-15
      vertex -14.6738 0.950505 32.2
    endloop
  endfacet
  facet normal -2.22045e-16 0 -1
    outer loop
      vertex -1.07456 0.00657368 2.38601e-16
      vertex 0 1.2 0
      vertex -0.0262222 0.950505 5.8225e-18
    endloop
  endfacet
  facet normal -2.22045e-16 0 -1
    outer loop
      vertex 0 1.2 0
      vertex -14.7 1.2 3.26406e-15
      vertex 0 27.3 0
    endloop
  endfacet
  facet normal -2.22045e-16 0 -1
    outer loop
      vertex -1.07456 0.00657368 2.38601e-16
      vertex -0.0262222 0.950505 5.8225e-18
      vertex -0.103745 0.711916 2.30359e-17
    endloop
  endfacet
  facet normal -2.22045e-16 -0 -1
    outer loop
      vertex -14.7 27.3 3.26406e-15
      vertex 0 27.3 0
      vertex -14.7 1.2 3.26406e-15
    endloop
  endfacet
  facet normal -2.22045e-16 0 -1
    outer loop
      vertex -1.07456 0.00657368 2.38601e-16
      vertex -0.103745 0.711916 2.30359e-17
      vertex -0.229179 0.494658 5.0888e-17
    endloop
  endfacet
  facet normal -2.22045e-16 0 -1
    outer loop
      vertex -1.07456 28.4934 2.38601e-16
      vertex 0 27.3 0
      vertex -14.7 27.3 3.26406e-15
    endloop
  endfacet
  facet normal -2.22045e-16 0 -1
    outer loop
      vertex -1.07456 0.00657368 2.38601e-16
      vertex -0.229179 0.494658 5.0888e-17
      vertex -0.397043 0.308226 8.81613e-17
    endloop
  endfacet
  facet normal -2.22045e-16 0 -1
    outer loop
      vertex 0 27.3 0
      vertex -1.07456 28.4934 2.38601e-16
      vertex -0.0262222 27.5495 5.8225e-18
    endloop
  endfacet
  facet normal -2.22045e-16 0 -1
    outer loop
      vertex -1.07456 0.00657368 2.38601e-16
      vertex -0.397043 0.308226 8.81613e-17
      vertex -0.599999 0.160769 1.33227e-16
    endloop
  endfacet
  facet normal -2.22045e-16 0 -1
    outer loop
      vertex 0 1.2 0
      vertex -1.07456 0.00657368 2.38601e-16
      vertex -14.7 1.2 3.26406e-15
    endloop
  endfacet
  facet normal -2.22045e-16 0 -1
    outer loop
      vertex -1.07456 0.00657368 2.38601e-16
      vertex -0.599999 0.160769 1.33227e-16
      vertex -0.829179 0.058732 1.84115e-16
    endloop
  endfacet
  facet normal -2.22045e-16 0 -1
    outer loop
      vertex -0.0262222 27.5495 5.8225e-18
      vertex -1.07456 28.4934 2.38601e-16
      vertex -0.103745 27.7881 2.30359e-17
    endloop
  endfacet
  facet normal -2.22045e-16 0 -1
    outer loop
      vertex -0.397043 28.1918 8.81613e-17
      vertex -1.07456 28.4934 2.38601e-16
      vertex -0.599999 28.3392 1.33227e-16
    endloop
  endfacet
  facet normal -2.22045e-16 0 -1
    outer loop
      vertex -0.599999 28.3392 1.33227e-16
      vertex -1.07456 28.4934 2.38601e-16
      vertex -0.829179 28.4413 1.84115e-16
    endloop
  endfacet
  facet normal -2.22045e-16 0 -1
    outer loop
      vertex -14.7 1.2 3.26406e-15
      vertex -1.07456 0.00657368 2.38601e-16
      vertex -13.6254 0.00657368 3.02545e-15
    endloop
  endfacet
  facet normal -2.22045e-16 0 -1
    outer loop
      vertex -0.103745 27.7881 2.30359e-17
      vertex -1.07456 28.4934 2.38601e-16
      vertex -0.229179 28.0053 5.0888e-17
    endloop
  endfacet
  facet normal -2.22045e-16 0 -1
    outer loop
      vertex -14.7 1.2 3.26406e-15
      vertex -13.6254 0.00657368 3.02545e-15
      vertex -13.8708 0.058732 3.07994e-15
    endloop
  endfacet
  facet normal -2.22045e-16 0 -1
    outer loop
      vertex -0.229179 28.0053 5.0888e-17
      vertex -1.07456 28.4934 2.38601e-16
      vertex -0.397043 28.1918 8.81613e-17
    endloop
  endfacet
  facet normal -2.22045e-16 0 -1
    outer loop
      vertex -14.7 1.2 3.26406e-15
      vertex -13.8708 0.058732 3.07994e-15
      vertex -14.1 0.160769 3.13083e-15
    endloop
  endfacet
  facet normal -2.22045e-16 0 -1
    outer loop
      vertex -1.07456 28.4934 2.38601e-16
      vertex -14.7 27.3 3.26406e-15
      vertex -13.6254 28.4934 3.02545e-15
    endloop
  endfacet
  facet normal -2.22045e-16 0 -1
    outer loop
      vertex -14.7 1.2 3.26406e-15
      vertex -14.1 0.160769 3.13083e-15
      vertex -14.303 0.308226 3.17589e-15
    endloop
  endfacet
  facet normal -2.22045e-16 0 -1
    outer loop
      vertex -13.6254 28.4934 3.02545e-15
      vertex -14.7 27.3 3.26406e-15
      vertex -13.8708 28.4413 3.07994e-15
    endloop
  endfacet
  facet normal -2.22045e-16 0 -1
    outer loop
      vertex -14.7 1.2 3.26406e-15
      vertex -14.303 0.308226 3.17589e-15
      vertex -14.4708 0.494658 3.21317e-15
    endloop
  endfacet
  facet normal -2.22045e-16 0 -1
    outer loop
      vertex -13.8708 28.4413 3.07994e-15
      vertex -14.7 27.3 3.26406e-15
      vertex -14.1 28.3392 3.13083e-15
    endloop
  endfacet
  facet normal -2.22045e-16 0 -1
    outer loop
      vertex -14.7 1.2 3.26406e-15
      vertex -14.4708 0.494658 3.21317e-15
      vertex -14.5963 0.711916 3.24102e-15
    endloop
  endfacet
  facet normal -2.22045e-16 0 -1
    outer loop
      vertex -14.1 28.3392 3.13083e-15
      vertex -14.7 27.3 3.26406e-15
      vertex -14.303 28.1918 3.17589e-15
    endloop
  endfacet
  facet normal -2.22045e-16 0 -1
    outer loop
      vertex -14.7 1.2 3.26406e-15
      vertex -14.5963 0.711916 3.24102e-15
      vertex -14.6738 0.950505 3.25823e-15
    endloop
  endfacet
  facet normal -2.22045e-16 0 -1
    outer loop
      vertex -14.303 28.1918 3.17589e-15
      vertex -14.7 27.3 3.26406e-15
      vertex -14.4708 28.0053 3.21317e-15
    endloop
  endfacet
  facet normal -2.22045e-16 0 -1
    outer loop
      vertex -14.4708 28.0053 3.21317e-15
      vertex -14.7 27.3 3.26406e-15
      vertex -14.5963 27.7881 3.24102e-15
    endloop
  endfacet
  facet normal -2.22045e-16 0 -1
    outer loop
      vertex -14.5963 27.7881 3.24102e-15
      vertex -14.7 27.3 3.26406e-15
      vertex -14.6738 27.5495 3.25823e-15
    endloop
  endfacet
  facet normal 1 0 -2.22045e-16
    outer loop
      vertex 7.14984e-15 1.2 32.2
      vertex 0 27.3 0
      vertex 7.14984e-15 27.3 32.2
    endloop
  endfacet
  facet normal 1 0 -2.22045e-16
    outer loop
      vertex 0 27.3 0
      vertex 7.14984e-15 1.2 32.2
      vertex 0 1.2 0
    endloop
  endfacet
  facet normal 0.866024 0.500002 0
    outer loop
      vertex -0.103745 27.7881 32.2
      vertex -0.229179 28.0053 5.0888e-17
      vertex -0.229179 28.0053 32.2
    endloop
  endfacet
  facet normal 0.866024 0.500002 0
    outer loop
      vertex -0.229179 28.0053 5.0888e-17
      vertex -0.103745 27.7881 32.2
      vertex -0.103745 27.7881 2.30359e-17
    endloop
  endfacet
  facet normal 0.207911 0.978148 0
    outer loop
      vertex -0.829179 28.4413 31
      vertex -1.07456 28.4934 2.38601e-16
      vertex -1.07456 28.4934 31
    endloop
  endfacet
  facet normal 0.207911 0.978148 0
    outer loop
      vertex -1.07456 28.4934 2.38601e-16
      vertex -0.829179 28.4413 31
      vertex -0.829179 28.4413 1.84115e-16
    endloop
  endfacet
  facet normal 0.207911 0.978148 -0
    outer loop
      vertex -0.829179 28.4413 31.8
      vertex -1.07456 28.4934 32.2
      vertex -0.829179 28.4413 32.2
    endloop
  endfacet
  facet normal 0.207911 0.978148 0
    outer loop
      vertex -1.07456 28.4934 32.2
      vertex -0.829179 28.4413 31.8
      vertex -1.07456 28.4934 31.8
    endloop
  endfacet
  facet normal -0.743147 0.669128 0
    outer loop
      vertex -14.4708 28.0053 3.21317e-15
      vertex -14.303 28.1918 32.2
      vertex -14.303 28.1918 3.17589e-15
    endloop
  endfacet
  facet normal -0.743147 0.669128 0
    outer loop
      vertex -14.303 28.1918 32.2
      vertex -14.4708 28.0053 3.21317e-15
      vertex -14.4708 28.0053 32.2
    endloop
  endfacet
  facet normal -1 0 0
    outer loop
      vertex -14.7 1.2 3.26406e-15
      vertex -14.7 27.3 32.2
      vertex -14.7 27.3 3.26406e-15
    endloop
  endfacet
  facet normal -1 -0 0
    outer loop
      vertex -14.7 27.3 32.2
      vertex -14.7 1.2 3.26406e-15
      vertex -14.7 1.2 32.2
    endloop
  endfacet
  facet normal -0.866024 0.500002 0
    outer loop
      vertex -14.5963 27.7881 3.24102e-15
      vertex -14.4708 28.0053 32.2
      vertex -14.4708 28.0053 3.21317e-15
    endloop
  endfacet
  facet normal -0.866024 0.500002 0
    outer loop
      vertex -14.4708 28.0053 32.2
      vertex -14.5963 27.7881 3.24102e-15
      vertex -14.5963 27.7881 32.2
    endloop
  endfacet
  facet normal 0.743145 -0.66913 0
    outer loop
      vertex -0.397043 0.308226 32.2
      vertex -0.229179 0.494658 5.0888e-17
      vertex -0.229179 0.494658 32.2
    endloop
  endfacet
  facet normal 0.743145 -0.66913 0
    outer loop
      vertex -0.229179 0.494658 5.0888e-17
      vertex -0.397043 0.308226 32.2
      vertex -0.397043 0.308226 8.81613e-17
    endloop
  endfacet
  facet normal 0.994522 -0.104526 -2.20868e-16
    outer loop
      vertex -0.0262222 0.950505 32.2
      vertex 0 1.2 0
      vertex 7.14984e-15 1.2 32.2
    endloop
  endfacet
  facet normal 0.994522 -0.104526 0
    outer loop
      vertex 0 1.2 0
      vertex -0.0262222 0.950505 32.2
      vertex -0.0262222 0.950505 5.8225e-18
    endloop
  endfacet
  facet normal 0.743145 0.66913 0
    outer loop
      vertex -0.229179 28.0053 32.2
      vertex -0.397043 28.1918 8.81613e-17
      vertex -0.397043 28.1918 32.2
    endloop
  endfacet
  facet normal 0.743145 0.66913 0
    outer loop
      vertex -0.397043 28.1918 8.81613e-17
      vertex -0.229179 28.0053 32.2
      vertex -0.229179 28.0053 5.0888e-17
    endloop
  endfacet
  facet normal -0.207911 0.978148 0
    outer loop
      vertex -13.6254 28.4934 31
      vertex -13.8708 28.4413 3.07994e-15
      vertex -13.8708 28.4413 31
    endloop
  endfacet
  facet normal -0.207911 0.978148 0
    outer loop
      vertex -13.8708 28.4413 3.07994e-15
      vertex -13.6254 28.4934 31
      vertex -13.6254 28.4934 3.02545e-15
    endloop
  endfacet
  facet normal -0.207911 0.978148 0
    outer loop
      vertex -13.6254 28.4934 31.8
      vertex -13.8708 28.4413 32.2
      vertex -13.6254 28.4934 32.2
    endloop
  endfacet
  facet normal -0.207911 0.978148 0
    outer loop
      vertex -13.8708 28.4413 32.2
      vertex -13.6254 28.4934 31.8
      vertex -13.8708 28.4413 31.8
    endloop
  endfacet
  facet normal -0.951056 0.309018 0
    outer loop
      vertex -14.6738 27.5495 3.25823e-15
      vertex -14.5963 27.7881 32.2
      vertex -14.5963 27.7881 3.24102e-15
    endloop
  endfacet
  facet normal -0.951056 0.309018 0
    outer loop
      vertex -14.5963 27.7881 32.2
      vertex -14.6738 27.5495 3.25823e-15
      vertex -14.6738 27.5495 32.2
    endloop
  endfacet
  facet normal -0.406737 -0.913545 0
    outer loop
      vertex -14.1 0.160769 3.13083e-15
      vertex -13.8708 0.058732 32.2
      vertex -14.1 0.160769 32.2
    endloop
  endfacet
  facet normal -0.406737 -0.913545 -0
    outer loop
      vertex -13.8708 0.058732 32.2
      vertex -14.1 0.160769 3.13083e-15
      vertex -13.8708 0.058732 3.07994e-15
    endloop
  endfacet
  facet normal -0.866024 -0.500002 0
    outer loop
      vertex -14.4708 0.494658 3.21317e-15
      vertex -14.5963 0.711916 32.2
      vertex -14.5963 0.711916 3.24102e-15
    endloop
  endfacet
  facet normal -0.866024 -0.500002 0
    outer loop
      vertex -14.5963 0.711916 32.2
      vertex -14.4708 0.494658 3.21317e-15
      vertex -14.4708 0.494658 32.2
    endloop
  endfacet
  facet normal 0.866024 -0.500002 0
    outer loop
      vertex -0.229179 0.494658 32.2
      vertex -0.103745 0.711916 2.30359e-17
      vertex -0.103745 0.711916 32.2
    endloop
  endfacet
  facet normal 0.866024 -0.500002 0
    outer loop
      vertex -0.103745 0.711916 2.30359e-17
      vertex -0.229179 0.494658 32.2
      vertex -0.229179 0.494658 5.0888e-17
    endloop
  endfacet
  facet normal 0.207911 -0.978148 0
    outer loop
      vertex -1.07456 0.00657368 2.38601e-16
      vertex -0.829179 0.058732 32.2
      vertex -1.07456 0.00657368 32.2
    endloop
  endfacet
  facet normal 0.207911 -0.978148 0
    outer loop
      vertex -0.829179 0.058732 32.2
      vertex -1.07456 0.00657368 2.38601e-16
      vertex -0.829179 0.058732 1.84115e-16
    endloop
  endfacet
  facet normal 0.951056 0.309018 0
    outer loop
      vertex -0.0262222 27.5495 32.2
      vertex -0.103745 27.7881 2.30359e-17
      vertex -0.103745 27.7881 32.2
    endloop
  endfacet
  facet normal 0.951056 0.309018 0
    outer loop
      vertex -0.103745 27.7881 2.30359e-17
      vertex -0.0262222 27.5495 32.2
      vertex -0.0262222 27.5495 5.8225e-18
    endloop
  endfacet
  facet normal 0.994522 0.104526 0
    outer loop
      vertex 7.14984e-15 27.3 32.2
      vertex -0.0262222 27.5495 5.8225e-18
      vertex -0.0262222 27.5495 32.2
    endloop
  endfacet
  facet normal 0.994522 0.104526 -2.20868e-16
    outer loop
      vertex -0.0262222 27.5495 5.8225e-18
      vertex 7.14984e-15 27.3 32.2
      vertex 0 27.3 0
    endloop
  endfacet
  facet normal 0.406737 0.913545 -0
    outer loop
      vertex -0.599999 28.3392 31.8
      vertex -0.829179 28.4413 32.2
      vertex -0.599999 28.3392 32.2
    endloop
  endfacet
  facet normal 0.406737 0.913545 0
    outer loop
      vertex -0.829179 28.4413 32.2
      vertex -0.599999 28.3392 31.8
      vertex -0.829179 28.4413 31.8
    endloop
  endfacet
  facet normal 0.406737 0.913545 0
    outer loop
      vertex -0.599999 28.3392 31
      vertex -0.829179 28.4413 1.84115e-16
      vertex -0.829179 28.4413 31
    endloop
  endfacet
  facet normal 0.406737 0.913545 0
    outer loop
      vertex -0.829179 28.4413 1.84115e-16
      vertex -0.599999 28.3392 31
      vertex -0.599999 28.3392 1.33227e-16
    endloop
  endfacet
  facet normal 0.587787 0.809015 3.29012e-06
    outer loop
      vertex -0.397043 28.1918 32.2
      vertex -0.4 28.1939 31.8
      vertex -0.599999 28.3392 32.2
    endloop
  endfacet
  facet normal 0.588079 0.808804 0
    outer loop
      vertex -0.397043 28.1918 32.2
      vertex -0.4 28.1939 31
      vertex -0.4 28.1939 31.8
    endloop
  endfacet
  facet normal 0.587783 0.809019 0
    outer loop
      vertex -0.4 28.1939 31
      vertex -0.599999 28.3392 1.33227e-16
      vertex -0.599999 28.3392 31
    endloop
  endfacet
  facet normal 0.587787 0.809015 -4.24533e-08
    outer loop
      vertex -0.4 28.1939 31
      vertex -0.397043 28.1918 8.81613e-17
      vertex -0.599999 28.3392 1.33227e-16
    endloop
  endfacet
  facet normal 0.588079 0.808804 -0
    outer loop
      vertex -0.397043 28.1918 8.81613e-17
      vertex -0.4 28.1939 31
      vertex -0.397043 28.1918 32.2
    endloop
  endfacet
  facet normal 0.587783 0.809019 0
    outer loop
      vertex -0.599999 28.3392 32.2
      vertex -0.4 28.1939 31.8
      vertex -0.599999 28.3392 31.8
    endloop
  endfacet
  facet normal -0.587783 0.809019 -2.49986e-08
    outer loop
      vertex -14.1 28.3392 31
      vertex -14.303 28.1918 3.17589e-15
      vertex -14.3 28.1939 31
    endloop
  endfacet
  facet normal -0.587786 0.809017 0
    outer loop
      vertex -14.303 28.1918 3.17589e-15
      vertex -14.1 28.3392 31
      vertex -14.1 28.3392 3.13083e-15
    endloop
  endfacet
  facet normal -0.587786 0.809017 0
    outer loop
      vertex -14.1 28.3392 31.8
      vertex -14.303 28.1918 32.2
      vertex -14.1 28.3392 32.2
    endloop
  endfacet
  facet normal -0.587783 0.809019 1.93739e-06
    outer loop
      vertex -14.3 28.1939 31.8
      vertex -14.303 28.1918 32.2
      vertex -14.1 28.3392 31.8
    endloop
  endfacet
  facet normal -0.587955 0.808894 0
    outer loop
      vertex -14.3 28.1939 31
      vertex -14.303 28.1918 32.2
      vertex -14.3 28.1939 31.8
    endloop
  endfacet
  facet normal -0.587955 0.808894 0
    outer loop
      vertex -14.303 28.1918 32.2
      vertex -14.3 28.1939 31
      vertex -14.303 28.1918 3.17589e-15
    endloop
  endfacet
  facet normal -0.406737 0.913545 0
    outer loop
      vertex -13.8708 28.4413 31
      vertex -14.1 28.3392 3.13083e-15
      vertex -14.1 28.3392 31
    endloop
  endfacet
  facet normal -0.406737 0.913545 0
    outer loop
      vertex -14.1 28.3392 3.13083e-15
      vertex -13.8708 28.4413 31
      vertex -13.8708 28.4413 3.07994e-15
    endloop
  endfacet
  facet normal -0.406737 0.913545 0
    outer loop
      vertex -13.8708 28.4413 31.8
      vertex -14.1 28.3392 32.2
      vertex -13.8708 28.4413 32.2
    endloop
  endfacet
  facet normal -0.406737 0.913545 0
    outer loop
      vertex -14.1 28.3392 32.2
      vertex -13.8708 28.4413 31.8
      vertex -14.1 28.3392 31.8
    endloop
  endfacet
  facet normal -0.587783 -0.809019 0
    outer loop
      vertex -14.303 0.308226 3.17589e-15
      vertex -14.1 0.160769 32.2
      vertex -14.303 0.308226 32.2
    endloop
  endfacet
  facet normal -0.587783 -0.809019 -0
    outer loop
      vertex -14.1 0.160769 32.2
      vertex -14.303 0.308226 3.17589e-15
      vertex -14.1 0.160769 3.13083e-15
    endloop
  endfacet
  facet normal -0.951057 -0.309017 0
    outer loop
      vertex -14.5963 0.711916 3.24102e-15
      vertex -14.6738 0.950505 32.2
      vertex -14.6738 0.950505 3.25823e-15
    endloop
  endfacet
  facet normal -0.951057 -0.309017 0
    outer loop
      vertex -14.6738 0.950505 32.2
      vertex -14.5963 0.711916 3.24102e-15
      vertex -14.5963 0.711916 32.2
    endloop
  endfacet
  facet normal 0.587785 -0.809017 0
    outer loop
      vertex -0.599999 0.160769 1.33227e-16
      vertex -0.397043 0.308226 32.2
      vertex -0.599999 0.160769 32.2
    endloop
  endfacet
  facet normal 0.587785 -0.809017 0
    outer loop
      vertex -0.397043 0.308226 32.2
      vertex -0.599999 0.160769 1.33227e-16
      vertex -0.397043 0.308226 8.81613e-17
    endloop
  endfacet
  facet normal 0.406737 -0.913545 0
    outer loop
      vertex -0.829179 0.058732 1.84115e-16
      vertex -0.599999 0.160769 32.2
      vertex -0.829179 0.058732 32.2
    endloop
  endfacet
  facet normal 0.406737 -0.913545 0
    outer loop
      vertex -0.599999 0.160769 32.2
      vertex -0.829179 0.058732 1.84115e-16
      vertex -0.599999 0.160769 1.33227e-16
    endloop
  endfacet
  facet normal -0.743147 -0.669128 0
    outer loop
      vertex -14.303 0.308226 3.17589e-15
      vertex -14.4708 0.494658 32.2
      vertex -14.4708 0.494658 3.21317e-15
    endloop
  endfacet
  facet normal -0.743147 -0.669128 0
    outer loop
      vertex -14.4708 0.494658 32.2
      vertex -14.303 0.308226 3.17589e-15
      vertex -14.303 0.308226 32.2
    endloop
  endfacet
  facet normal -0 0 1
    outer loop
      vertex -13.5 27.3 1.2
      vertex -1.2 1.2 1.2
      vertex -1.2 27.3 1.2
    endloop
  endfacet
  facet normal 0 0 1
    outer loop
      vertex -1.2 1.2 1.2
      vertex -13.5 27.3 1.2
      vertex -13.5 1.2 1.2
    endloop
  endfacet
  facet normal 1 -0 0
    outer loop
      vertex -13.5 1.2 31
      vertex -13.5 27.3 1.2
      vertex -13.5 27.3 31
    endloop
  endfacet
  facet normal 1 0 0
    outer loop
      vertex -13.5 27.3 1.2
      vertex -13.5 1.2 31
      vertex -13.5 1.2 1.2
    endloop
  endfacet
  facet normal 1 -0 0
    outer loop
      vertex -13.5 1.2 32.2
      vertex -13.5 28.4934 31.8
      vertex -13.5 28.4934 32.2
    endloop
  endfacet
  facet normal 1 0 0
    outer loop
      vertex -13.5 28.4934 31.8
      vertex -13.5 1.2 32.2
      vertex -13.5 1.2 31.8
    endloop
  endfacet
  facet normal 0 -1 0
    outer loop
      vertex -13.5 27.3 1.2
      vertex -1.2 27.3 31
      vertex -13.5 27.3 31
    endloop
  endfacet
  facet normal 0 -1 -0
    outer loop
      vertex -1.2 27.3 31
      vertex -13.5 27.3 1.2
      vertex -1.2 27.3 1.2
    endloop
  endfacet
  facet normal -1 0 0
    outer loop
      vertex -1.2 1.2 1.2
      vertex -1.2 27.3 31
      vertex -1.2 27.3 1.2
    endloop
  endfacet
  facet normal -1 -0 0
    outer loop
      vertex -1.2 27.3 31
      vertex -1.2 1.2 1.2
      vertex -1.2 1.2 31
    endloop
  endfacet
  facet normal -1 0 0
    outer loop
      vertex -1.2 1.2 31.8
      vertex -1.2 28.4934 32.2
      vertex -1.2 28.4934 31.8
    endloop
  endfacet
  facet normal -1 -0 0
    outer loop
      vertex -1.2 28.4934 32.2
      vertex -1.2 1.2 31.8
      vertex -1.2 1.2 32.2
    endloop
  endfacet
  facet normal 0 1 -0
    outer loop
      vertex -1.2 1.2 1.2
      vertex -13.5 1.2 31
      vertex -1.2 1.2 31
    endloop
  endfacet
  facet normal 0 1 0
    outer loop
      vertex -13.5 1.2 31
      vertex -1.2 1.2 1.2
      vertex -13.5 1.2 1.2
    endloop
  endfacet
  facet normal 0 1 0
    outer loop
      vertex -1.2 1.2 31
      vertex -1.2 1.2 31.8
      vertex -0.4 1.2 31.8
    endloop
  endfacet
  facet normal 0 1 0
    outer loop
      vertex -1.2 1.2 31.8
      vertex -1.2 1.2 31
      vertex -13.5 1.2 31.8
    endloop
  endfacet
  facet normal 0 1 0
    outer loop
      vertex -1.2 1.2 31
      vertex -0.4 1.2 31.8
      vertex -0.4 1.2 31
    endloop
  endfacet
  facet normal 0 1 0
    outer loop
      vertex -13.5 1.2 31
      vertex -13.5 1.2 31.8
      vertex -1.2 1.2 31
    endloop
  endfacet
  facet normal 0 1 0
    outer loop
      vertex -13.5 1.2 31.8
      vertex -13.5 1.2 31
      vertex -14.3 1.2 31.8
    endloop
  endfacet
  facet normal 0 1 0
    outer loop
      vertex -14.3 1.2 31.8
      vertex -13.5 1.2 31
      vertex -14.3 1.2 31
    endloop
  endfacet
  facet normal 0 1 -0
    outer loop
      vertex -1.2 1.2 31.8
      vertex -13.5 1.2 32.2
      vertex -1.2 1.2 32.2
    endloop
  endfacet
  facet normal 0 1 0
    outer loop
      vertex -13.5 1.2 32.2
      vertex -1.2 1.2 31.8
      vertex -13.5 1.2 31.8
    endloop
  endfacet
  facet normal 0 0 1
    outer loop
      vertex -1.07456 28.4934 31
      vertex -13.5 27.3 31
      vertex -1.2 27.3 31
    endloop
  endfacet
  facet normal -0 0 1
    outer loop
      vertex -13.6254 28.4934 31
      vertex -13.5 27.3 31
      vertex -1.07456 28.4934 31
    endloop
  endfacet
  facet normal -0 0 1
    outer loop
      vertex -13.8708 28.4413 31
      vertex -13.5 27.3 31
      vertex -13.6254 28.4934 31
    endloop
  endfacet
  facet normal -0 0 1
    outer loop
      vertex -14.1 28.3392 31
      vertex -13.5 27.3 31
      vertex -13.8708 28.4413 31
    endloop
  endfacet
  facet normal 0 0 1
    outer loop
      vertex -13.5 27.3 31
      vertex -14.1 28.3392 31
      vertex -14.3 28.1939 31
    endloop
  endfacet
  facet normal 0 0 1
    outer loop
      vertex -14.3 1.2 31
      vertex -13.5 27.3 31
      vertex -14.3 28.1939 31
    endloop
  endfacet
  facet normal 0 0 1
    outer loop
      vertex -13.5 27.3 31
      vertex -14.3 1.2 31
      vertex -13.5 1.2 31
    endloop
  endfacet
  facet normal 0 0 1
    outer loop
      vertex -1.2 27.3 31
      vertex -0.4 28.1939 31
      vertex -0.599999 28.3392 31
    endloop
  endfacet
  facet normal 0 0 1
    outer loop
      vertex -1.2 27.3 31
      vertex -0.599999 28.3392 31
      vertex -0.829179 28.4413 31
    endloop
  endfacet
  facet normal 0 0 1
    outer loop
      vertex -1.2 27.3 31
      vertex -0.829179 28.4413 31
      vertex -1.07456 28.4934 31
    endloop
  endfacet
  facet normal 0 0 1
    outer loop
      vertex -0.4 28.1939 31
      vertex -1.2 27.3 31
      vertex -0.4 1.2 31
    endloop
  endfacet
  facet normal 0 0 1
    outer loop
      vertex -0.4 1.2 31
      vertex -1.2 27.3 31
      vertex -1.2 1.2 31
    endloop
  endfacet
  facet normal 1 -0 0
    outer loop
      vertex -14.3 1.2 31.8
      vertex -14.3 28.1939 31
      vertex -14.3 28.1939 31.8
    endloop
  endfacet
  facet normal 1 0 0
    outer loop
      vertex -14.3 28.1939 31
      vertex -14.3 1.2 31.8
      vertex -14.3 1.2 31
    endloop
  endfacet
  facet normal 0 0 -1
    outer loop
      vertex -14.3 28.1939 31.8
      vertex -13.5 28.4934 31.8
      vertex -13.5 1.2 31.8
    endloop
  endfacet
  facet normal 0 -0 -1
    outer loop
      vertex -13.8708 28.4413 31.8
      vertex -13.5 28.4934 31.8
      vertex -14.3 28.1939 31.8
    endloop
  endfacet
  facet normal -0 0 -1
    outer loop
      vertex -13.5 28.4934 31.8
      vertex -13.8708 28.4413 31.8
      vertex -13.6254 28.4934 31.8
    endloop
  endfacet
  facet normal 0 0 -1
    outer loop
      vertex -14.3 28.1939 31.8
      vertex -13.5 1.2 31.8
      vertex -14.3 1.2 31.8
    endloop
  endfacet
  facet normal 0 0 -1
    outer loop
      vertex -13.8708 28.4413 31.8
      vertex -14.3 28.1939 31.8
      vertex -14.1 28.3392 31.8
    endloop
  endfacet
  facet normal 0 0 -1
    outer loop
      vertex -1.2 1.2 31.8
      vertex -0.4 28.1939 31.8
      vertex -0.4 1.2 31.8
    endloop
  endfacet
  facet normal 0 0 -1
    outer loop
      vertex -1.2 28.4934 31.8
      vertex -0.4 28.1939 31.8
      vertex -1.2 1.2 31.8
    endloop
  endfacet
  facet normal 0 0 -1
    outer loop
      vertex -0.4 28.1939 31.8
      vertex -1.2 28.4934 31.8
      vertex -0.599999 28.3392 31.8
    endloop
  endfacet
  facet normal 0 0 -1
    outer loop
      vertex -0.599999 28.3392 31.8
      vertex -1.2 28.4934 31.8
      vertex -0.829179 28.4413 31.8
    endloop
  endfacet
  facet normal 0 0 -1
    outer loop
      vertex -0.829179 28.4413 31.8
      vertex -1.2 28.4934 31.8
      vertex -1.07456 28.4934 31.8
    endloop
  endfacet
  facet normal -1 0 0
    outer loop
      vertex -0.4 1.2 31
      vertex -0.4 28.1939 31.8
      vertex -0.4 28.1939 31
    endloop
  endfacet
  facet normal -1 -0 0
    outer loop
      vertex -0.4 28.1939 31.8
      vertex -0.4 1.2 31
      vertex -0.4 1.2 31.8
    endloop
  endfacet
  facet normal -0.994522 0.104526 0
    outer loop
      vertex -10.05 0.599999 32.2
      vertex -10.0369 0.724747 36.16
      vertex -10.0369 0.724747 32.2
    endloop
  endfacet
  facet normal -0.994522 0.104526 0
    outer loop
      vertex -10.0369 0.724747 36.16
      vertex -10.05 0.599999 32.2
      vertex -10.05 0.599999 36.16
    endloop
  endfacet
  facet normal 0 1 -0
    outer loop
      vertex -5.18728 1.19671 32.2
      vertex -9.51272 1.19671 36.16
      vertex -5.18728 1.19671 36.16
    endloop
  endfacet
  facet normal 0 1 0
    outer loop
      vertex -9.51272 1.19671 36.16
      vertex -5.18728 1.19671 32.2
      vertex -9.51272 1.19671 32.2
    endloop
  endfacet
  facet normal -0.951055 0.309022 0
    outer loop
      vertex -10.0369 0.724747 32.2
      vertex -9.99813 0.844042 36.16
      vertex -9.99813 0.844042 32.2
    endloop
  endfacet
  facet normal -0.951055 0.309022 0
    outer loop
      vertex -9.99813 0.844042 36.16
      vertex -10.0369 0.724747 32.2
      vertex -10.0369 0.724747 36.16
    endloop
  endfacet
  facet normal 0.994522 0.104526 0
    outer loop
      vertex -4.65 0.599999 36.16
      vertex -4.66311 0.724747 32.2
      vertex -4.66311 0.724747 36.16
    endloop
  endfacet
  facet normal 0.994522 0.104526 0
    outer loop
      vertex -4.66311 0.724747 32.2
      vertex -4.65 0.599999 36.16
      vertex -4.65 0.599999 32.2
    endloop
  endfacet
  facet normal 0.994522 -0.104526 0
    outer loop
      vertex -4.66311 0.475252 36.16
      vertex -4.65 0.599999 32.2
      vertex -4.65 0.599999 36.16
    endloop
  endfacet
  facet normal 0.994522 -0.104526 0
    outer loop
      vertex -4.65 0.599999 32.2
      vertex -4.66311 0.475252 36.16
      vertex -4.66311 0.475252 32.2
    endloop
  endfacet
  facet normal 0.207911 0.978148 -0
    outer loop
      vertex -5.06459 1.17063 32.2
      vertex -5.18728 1.19671 36.16
      vertex -5.06459 1.17063 36.16
    endloop
  endfacet
  facet normal 0.207911 0.978148 0
    outer loop
      vertex -5.18728 1.19671 36.16
      vertex -5.06459 1.17063 32.2
      vertex -5.18728 1.19671 32.2
    endloop
  endfacet
  facet normal -0.207911 -0.978148 0
    outer loop
      vertex -9.63541 0.0293655 32.2
      vertex -9.51272 0.00328636 36.16
      vertex -9.63541 0.0293655 36.16
    endloop
  endfacet
  facet normal -0.207912 -0.978148 6.68545e-09
    outer loop
      vertex -9.52818 0.00657368 32.2
      vertex -9.51272 0.00328636 36.16
      vertex -9.63541 0.0293655 32.2
    endloop
  endfacet
  facet normal -0.20791 -0.978148 0
    outer loop
      vertex -9.51272 0.00328636 31
      vertex -9.52818 0.00657368 32.2
      vertex -9.52818 0.00657368 31
    endloop
  endfacet
  facet normal -0.20791 -0.978148 0
    outer loop
      vertex -9.52818 0.00657368 32.2
      vertex -9.51272 0.00328636 31
      vertex -9.51272 0.00328636 36.16
    endloop
  endfacet
  facet normal 0 -1 0
    outer loop
      vertex -9.51272 0.00328636 31
      vertex -5.18728 0.00328636 36.16
      vertex -9.51272 0.00328636 36.16
    endloop
  endfacet
  facet normal 0 -1 -0
    outer loop
      vertex -5.18728 0.00328636 36.16
      vertex -9.51272 0.00328636 31
      vertex -5.18728 0.00328636 31
    endloop
  endfacet
  facet normal 0.951056 -0.309018 0
    outer loop
      vertex -4.70187 0.355958 36.16
      vertex -4.66311 0.475252 32.2
      vertex -4.66311 0.475252 36.16
    endloop
  endfacet
  facet normal 0.951056 -0.309018 0
    outer loop
      vertex -4.66311 0.475252 32.2
      vertex -4.70187 0.355958 36.16
      vertex -4.70187 0.355958 32.2
    endloop
  endfacet
  facet normal -0.743145 -0.66913 0
    outer loop
      vertex -9.85148 0.154113 32.2
      vertex -9.93541 0.247329 36.16
      vertex -9.93541 0.247329 32.2
    endloop
  endfacet
  facet normal -0.743145 -0.66913 0
    outer loop
      vertex -9.93541 0.247329 36.16
      vertex -9.85148 0.154113 32.2
      vertex -9.85148 0.154113 36.16
    endloop
  endfacet
  facet normal -0.406737 -0.913545 0
    outer loop
      vertex -9.75 0.0803843 32.2
      vertex -9.63541 0.0293655 36.16
      vertex -9.75 0.0803843 36.16
    endloop
  endfacet
  facet normal -0.406737 -0.913545 -0
    outer loop
      vertex -9.63541 0.0293655 36.16
      vertex -9.75 0.0803843 32.2
      vertex -9.63541 0.0293655 32.2
    endloop
  endfacet
  facet normal -0.743142 0.669134 0
    outer loop
      vertex -9.93541 0.952671 32.2
      vertex -9.85148 1.04589 36.16
      vertex -9.85148 1.04589 32.2
    endloop
  endfacet
  facet normal -0.743142 0.669134 0
    outer loop
      vertex -9.85148 1.04589 36.16
      vertex -9.93541 0.952671 32.2
      vertex -9.93541 0.952671 36.16
    endloop
  endfacet
  facet normal -0.587786 0.809017 0
    outer loop
      vertex -9.75 1.11961 32.2
      vertex -9.85148 1.04589 36.16
      vertex -9.75 1.11961 36.16
    endloop
  endfacet
  facet normal -0.587786 0.809017 0
    outer loop
      vertex -9.85148 1.04589 36.16
      vertex -9.75 1.11961 32.2
      vertex -9.85148 1.04589 32.2
    endloop
  endfacet
  facet normal -0.207911 0.978148 0
    outer loop
      vertex -9.51272 1.19671 32.2
      vertex -9.63541 1.17063 36.16
      vertex -9.51272 1.19671 36.16
    endloop
  endfacet
  facet normal -0.207911 0.978148 0
    outer loop
      vertex -9.63541 1.17063 36.16
      vertex -9.51272 1.19671 32.2
      vertex -9.63541 1.17063 32.2
    endloop
  endfacet
  facet normal -0.866028 -0.499996 0
    outer loop
      vertex -9.93541 0.247329 32.2
      vertex -9.99813 0.355958 36.16
      vertex -9.99813 0.355958 32.2
    endloop
  endfacet
  facet normal -0.866028 -0.499996 0
    outer loop
      vertex -9.99813 0.355958 36.16
      vertex -9.93541 0.247329 32.2
      vertex -9.93541 0.247329 36.16
    endloop
  endfacet
  facet normal 0.587789 -0.809014 0
    outer loop
      vertex -4.95 0.0803843 32.2
      vertex -4.84852 0.154113 36.16
      vertex -4.95 0.0803843 36.16
    endloop
  endfacet
  facet normal 0.587789 -0.809014 0
    outer loop
      vertex -4.84852 0.154113 36.16
      vertex -4.95 0.0803843 32.2
      vertex -4.84852 0.154113 32.2
    endloop
  endfacet
  facet normal -0.866028 0.499996 0
    outer loop
      vertex -9.99813 0.844042 32.2
      vertex -9.93541 0.952671 36.16
      vertex -9.93541 0.952671 32.2
    endloop
  endfacet
  facet normal -0.866028 0.499996 0
    outer loop
      vertex -9.93541 0.952671 36.16
      vertex -9.99813 0.844042 32.2
      vertex -9.99813 0.844042 36.16
    endloop
  endfacet
  facet normal -0.406737 0.913545 0
    outer loop
      vertex -9.63541 1.17063 32.2
      vertex -9.75 1.11961 36.16
      vertex -9.63541 1.17063 36.16
    endloop
  endfacet
  facet normal -0.406737 0.913545 0
    outer loop
      vertex -9.75 1.11961 36.16
      vertex -9.63541 1.17063 32.2
      vertex -9.75 1.11961 32.2
    endloop
  endfacet
  facet normal 0.866024 0.500002 0
    outer loop
      vertex -4.70187 0.844042 36.16
      vertex -4.76459 0.952671 32.2
      vertex -4.76459 0.952671 36.16
    endloop
  endfacet
  facet normal 0.866024 0.500002 0
    outer loop
      vertex -4.76459 0.952671 32.2
      vertex -4.70187 0.844042 36.16
      vertex -4.70187 0.844042 32.2
    endloop
  endfacet
  facet normal 0.743142 0.669134 0
    outer loop
      vertex -4.76459 0.952671 36.16
      vertex -4.84852 1.04589 32.2
      vertex -4.84852 1.04589 36.16
    endloop
  endfacet
  facet normal 0.743142 0.669134 0
    outer loop
      vertex -4.84852 1.04589 32.2
      vertex -4.76459 0.952671 36.16
      vertex -4.76459 0.952671 32.2
    endloop
  endfacet
  facet normal 0.406737 0.913545 -0
    outer loop
      vertex -4.95 1.11961 32.2
      vertex -5.06459 1.17063 36.16
      vertex -4.95 1.11961 36.16
    endloop
  endfacet
  facet normal 0.406737 0.913545 0
    outer loop
      vertex -5.06459 1.17063 36.16
      vertex -4.95 1.11961 32.2
      vertex -5.06459 1.17063 32.2
    endloop
  endfacet
  facet normal 0 0 -1
    outer loop
      vertex -9.51272 0.00328636 31
      vertex -5.17182 0.00657368 31
      vertex -5.18728 0.00328636 31
    endloop
  endfacet
  facet normal -0 0 -1
    outer loop
      vertex -5.17182 0.00657368 31
      vertex -9.51272 0.00328636 31
      vertex -9.52818 0.00657368 31
    endloop
  endfacet
  facet normal 0.406737 -0.913545 0
    outer loop
      vertex -5.06459 0.0293655 32.2
      vertex -4.95 0.0803843 36.16
      vertex -5.06459 0.0293655 36.16
    endloop
  endfacet
  facet normal 0.406737 -0.913545 0
    outer loop
      vertex -4.95 0.0803843 36.16
      vertex -5.06459 0.0293655 32.2
      vertex -4.95 0.0803843 32.2
    endloop
  endfacet
  facet normal 0.207911 -0.978148 5.84274e-09
    outer loop
      vertex -5.18728 0.00328636 36.16
      vertex -5.17182 0.00657368 32.2
      vertex -5.06459 0.0293655 36.16
    endloop
  endfacet
  facet normal 0.20791 -0.978148 0
    outer loop
      vertex -5.18728 0.00328636 31
      vertex -5.17182 0.00657368 32.2
      vertex -5.18728 0.00328636 36.16
    endloop
  endfacet
  facet normal 0.20791 -0.978148 0
    outer loop
      vertex -5.17182 0.00657368 32.2
      vertex -5.18728 0.00328636 31
      vertex -5.17182 0.00657368 31
    endloop
  endfacet
  facet normal 0.207912 -0.978148 0
    outer loop
      vertex -5.06459 0.0293655 36.16
      vertex -5.17182 0.00657368 32.2
      vertex -5.06459 0.0293655 32.2
    endloop
  endfacet
  facet normal 0 0 1
    outer loop
      vertex -4.66311 0.724747 36.16
      vertex -4.66311 0.475252 36.16
      vertex -4.65 0.599999 36.16
    endloop
  endfacet
  facet normal 0 0 1
    outer loop
      vertex -4.70187 0.844042 36.16
      vertex -4.66311 0.475252 36.16
      vertex -4.66311 0.724747 36.16
    endloop
  endfacet
  facet normal 0 0 1
    outer loop
      vertex -4.70187 0.844042 36.16
      vertex -4.70187 0.355958 36.16
      vertex -4.66311 0.475252 36.16
    endloop
  endfacet
  facet normal 0 0 1
    outer loop
      vertex -4.76459 0.952671 36.16
      vertex -4.70187 0.355958 36.16
      vertex -4.70187 0.844042 36.16
    endloop
  endfacet
  facet normal 0 0 1
    outer loop
      vertex -4.76459 0.952671 36.16
      vertex -4.76459 0.247329 36.16
      vertex -4.70187 0.355958 36.16
    endloop
  endfacet
  facet normal 0 0 1
    outer loop
      vertex -4.84852 1.04589 36.16
      vertex -4.76459 0.247329 36.16
      vertex -4.76459 0.952671 36.16
    endloop
  endfacet
  facet normal 0 0 1
    outer loop
      vertex -4.84852 1.04589 36.16
      vertex -4.84852 0.154113 36.16
      vertex -4.76459 0.247329 36.16
    endloop
  endfacet
  facet normal 0 0 1
    outer loop
      vertex -4.95 1.11961 36.16
      vertex -4.84852 0.154113 36.16
      vertex -4.84852 1.04589 36.16
    endloop
  endfacet
  facet normal 0 0 1
    outer loop
      vertex -4.95 1.11961 36.16
      vertex -4.95 0.0803843 36.16
      vertex -4.84852 0.154113 36.16
    endloop
  endfacet
  facet normal 0 0 1
    outer loop
      vertex -5.06459 1.17063 36.16
      vertex -4.95 0.0803843 36.16
      vertex -4.95 1.11961 36.16
    endloop
  endfacet
  facet normal 0 0 1
    outer loop
      vertex -5.06459 1.17063 36.16
      vertex -5.06459 0.0293655 36.16
      vertex -4.95 0.0803843 36.16
    endloop
  endfacet
  facet normal 0 0 1
    outer loop
      vertex -5.18728 1.19671 36.16
      vertex -5.06459 0.0293655 36.16
      vertex -5.06459 1.17063 36.16
    endloop
  endfacet
  facet normal 0 0 1
    outer loop
      vertex -5.18728 1.19671 36.16
      vertex -5.18728 0.00328636 36.16
      vertex -5.06459 0.0293655 36.16
    endloop
  endfacet
  facet normal -0 0 1
    outer loop
      vertex -9.51272 1.19671 36.16
      vertex -5.18728 0.00328636 36.16
      vertex -5.18728 1.19671 36.16
    endloop
  endfacet
  facet normal 0 0 1
    outer loop
      vertex -9.51272 1.19671 36.16
      vertex -9.51272 0.00328636 36.16
      vertex -5.18728 0.00328636 36.16
    endloop
  endfacet
  facet normal -0 0 1
    outer loop
      vertex -9.63541 1.17063 36.16
      vertex -9.51272 0.00328636 36.16
      vertex -9.51272 1.19671 36.16
    endloop
  endfacet
  facet normal 0 0 1
    outer loop
      vertex -9.63541 1.17063 36.16
      vertex -9.63541 0.0293655 36.16
      vertex -9.51272 0.00328636 36.16
    endloop
  endfacet
  facet normal -0 0 1
    outer loop
      vertex -9.75 1.11961 36.16
      vertex -9.63541 0.0293655 36.16
      vertex -9.63541 1.17063 36.16
    endloop
  endfacet
  facet normal 0 0 1
    outer loop
      vertex -9.75 1.11961 36.16
      vertex -9.75 0.0803843 36.16
      vertex -9.63541 0.0293655 36.16
    endloop
  endfacet
  facet normal -0 0 1
    outer loop
      vertex -9.85148 1.04589 36.16
      vertex -9.75 0.0803843 36.16
      vertex -9.75 1.11961 36.16
    endloop
  endfacet
  facet normal 0 0 1
    outer loop
      vertex -9.85148 1.04589 36.16
      vertex -9.85148 0.154113 36.16
      vertex -9.75 0.0803843 36.16
    endloop
  endfacet
  facet normal -0 0 1
    outer loop
      vertex -9.93541 0.952671 36.16
      vertex -9.85148 0.154113 36.16
      vertex -9.85148 1.04589 36.16
    endloop
  endfacet
  facet normal 0 0 1
    outer loop
      vertex -9.93541 0.952671 36.16
      vertex -9.93541 0.247329 36.16
      vertex -9.85148 0.154113 36.16
    endloop
  endfacet
  facet normal -0 0 1
    outer loop
      vertex -9.99813 0.844042 36.16
      vertex -9.93541 0.247329 36.16
      vertex -9.93541 0.952671 36.16
    endloop
  endfacet
  facet normal 0 0 1
    outer loop
      vertex -9.99813 0.844042 36.16
      vertex -9.99813 0.355958 36.16
      vertex -9.93541 0.247329 36.16
    endloop
  endfacet
  facet normal -0 0 1
    outer loop
      vertex -10.0369 0.724747 36.16
      vertex -9.99813 0.355958 36.16
      vertex -9.99813 0.844042 36.16
    endloop
  endfacet
  facet normal 0 0 1
    outer loop
      vertex -10.0369 0.724747 36.16
      vertex -10.0369 0.475252 36.16
      vertex -9.99813 0.355958 36.16
    endloop
  endfacet
  facet normal 0 -0 1
    outer loop
      vertex -10.0369 0.475252 36.16
      vertex -10.0369 0.724747 36.16
      vertex -10.05 0.599999 36.16
    endloop
  endfacet
  facet normal 0.951057 0.309016 0
    outer loop
      vertex -4.66311 0.724747 36.16
      vertex -4.70187 0.844042 32.2
      vertex -4.70187 0.844042 36.16
    endloop
  endfacet
  facet normal 0.951057 0.309016 0
    outer loop
      vertex -4.70187 0.844042 32.2
      vertex -4.66311 0.724747 36.16
      vertex -4.66311 0.724747 32.2
    endloop
  endfacet
  facet normal 0.587789 0.809014 -0
    outer loop
      vertex -4.84852 1.04589 32.2
      vertex -4.95 1.11961 36.16
      vertex -4.84852 1.04589 36.16
    endloop
  endfacet
  facet normal 0.587789 0.809014 0
    outer loop
      vertex -4.95 1.11961 36.16
      vertex -4.84852 1.04589 32.2
      vertex -4.95 1.11961 32.2
    endloop
  endfacet
  facet normal 0.866024 -0.500002 0
    outer loop
      vertex -4.76459 0.247329 36.16
      vertex -4.70187 0.355958 32.2
      vertex -4.70187 0.355958 36.16
    endloop
  endfacet
  facet normal 0.866024 -0.500002 0
    outer loop
      vertex -4.70187 0.355958 32.2
      vertex -4.76459 0.247329 36.16
      vertex -4.76459 0.247329 32.2
    endloop
  endfacet
  facet normal -0.951054 -0.309025 0
    outer loop
      vertex -9.99813 0.355958 32.2
      vertex -10.0369 0.475252 36.16
      vertex -10.0369 0.475252 32.2
    endloop
  endfacet
  facet normal -0.951054 -0.309025 0
    outer loop
      vertex -10.0369 0.475252 36.16
      vertex -9.99813 0.355958 32.2
      vertex -9.99813 0.355958 36.16
    endloop
  endfacet
  facet normal -0.994522 -0.104526 0
    outer loop
      vertex -10.0369 0.475252 32.2
      vertex -10.05 0.599999 36.16
      vertex -10.05 0.599999 32.2
    endloop
  endfacet
  facet normal -0.994522 -0.104526 0
    outer loop
      vertex -10.05 0.599999 36.16
      vertex -10.0369 0.475252 32.2
      vertex -10.0369 0.475252 36.16
    endloop
  endfacet
  facet normal -0.587786 -0.809017 0
    outer loop
      vertex -9.85148 0.154113 32.2
      vertex -9.75 0.0803843 36.16
      vertex -9.85148 0.154113 36.16
    endloop
  endfacet
  facet normal -0.587786 -0.809017 -0
    outer loop
      vertex -9.75 0.0803843 36.16
      vertex -9.85148 0.154113 32.2
      vertex -9.75 0.0803843 32.2
    endloop
  endfacet
  facet normal 0.743145 -0.66913 0
    outer loop
      vertex -4.84852 0.154113 36.16
      vertex -4.76459 0.247329 32.2
      vertex -4.76459 0.247329 36.16
    endloop
  endfacet
  facet normal 0.743145 -0.66913 0
    outer loop
      vertex -4.76459 0.247329 32.2
      vertex -4.84852 0.154113 36.16
      vertex -4.84852 0.154113 32.2
    endloop
  endfacet
  facet normal -2.22045e-16 0 -1
    outer loop
      vertex -13.9 52.2 3.08642e-15
      vertex 0 79.5 0
      vertex 0 52.2 0
    endloop
  endfacet
  facet normal -2.22045e-16 0 -1
    outer loop
      vertex 0 79.5 0
      vertex -13.9 52.2 3.08642e-15
      vertex -13.9 79.5 3.08642e-15
    endloop
  endfacet
  facet normal -1 0 0
    outer loop
      vertex -13.9 52.2 3.08642e-15
      vertex -13.9 79.5 0.799999
      vertex -13.9 79.5 3.08642e-15
    endloop
  endfacet
  facet normal -1 -0 0
    outer loop
      vertex -13.9 79.5 0.799999
      vertex -13.9 52.2 3.08642e-15
      vertex -13.9 52.2 0.799999
    endloop
  endfacet
  facet normal -0 0 1
    outer loop
      vertex -13.9 79.5 0.799999
      vertex -13.1 52.2 0.799999
      vertex -13.1 79.5 0.799999
    endloop
  endfacet
  facet normal 0 0 1
    outer loop
      vertex -13.1 52.2 0.799999
      vertex -13.9 79.5 0.799999
      vertex -13.9 52.2 0.799999
    endloop
  endfacet
  facet normal -0 0 1
    outer loop
      vertex -0.799999 79.5 0.799999
      vertex 1.77636e-16 52.2 0.799999
      vertex 1.77636e-16 79.5 0.799999
    endloop
  endfacet
  facet normal 0 0 1
    outer loop
      vertex 1.77636e-16 52.2 0.799999
      vertex -0.799999 79.5 0.799999
      vertex -0.799999 52.2 0.799999
    endloop
  endfacet
  facet normal 0 1 -0
    outer loop
      vertex 0 79.5 0
      vertex -0.799999 79.5 0.799999
      vertex 1.77636e-16 79.5 0.799999
    endloop
  endfacet
  facet normal 0 1 0
    outer loop
      vertex -0.799999 79.5 0.799999
      vertex 0 79.5 0
      vertex -13.1 79.5 0.799999
    endloop
  endfacet
  facet normal 0 1 0
    outer loop
      vertex -13.1 79.5 0.799999
      vertex -13.9 79.5 3.08642e-15
      vertex -13.9 79.5 0.799999
    endloop
  endfacet
  facet normal 0 1 0
    outer loop
      vertex -13.1 79.5 0.799999
      vertex 0 79.5 0
      vertex -13.9 79.5 3.08642e-15
    endloop
  endfacet
  facet normal 0 1 -0
    outer loop
      vertex -0.799999 79.5 0.799999
      vertex -13.1 79.5 1.2
      vertex -0.799999 79.5 1.2
    endloop
  endfacet
  facet normal 0 1 0
    outer loop
      vertex -13.1 79.5 1.2
      vertex -0.799999 79.5 0.799999
      vertex -13.1 79.5 0.799999
    endloop
  endfacet
  facet normal 1 0 -2.22045e-16
    outer loop
      vertex 1.77636e-16 52.2 0.799999
      vertex 0 79.5 0
      vertex 1.77636e-16 79.5 0.799999
    endloop
  endfacet
  facet normal 1 0 -2.22045e-16
    outer loop
      vertex 0 79.5 0
      vertex 1.77636e-16 52.2 0.799999
      vertex 0 52.2 0
    endloop
  endfacet
  facet normal 0 -1 0
    outer loop
      vertex -13.9 52.2 3.08642e-15
      vertex -13.1 52.2 0.799999
      vertex -13.9 52.2 0.799999
    endloop
  endfacet
  facet normal 0 -1 -0
    outer loop
      vertex -13.1 52.2 0.799999
      vertex -13.9 52.2 3.08642e-15
      vertex -0.799999 52.2 0.799999
    endloop
  endfacet
  facet normal 0 -1 0
    outer loop
      vertex 0 52.2 0
      vertex -0.799999 52.2 0.799999
      vertex -13.9 52.2 3.08642e-15
    endloop
  endfacet
  facet normal 0 -1 0
    outer loop
      vertex -0.799999 52.2 0.799999
      vertex 0 52.2 0
      vertex 1.77636e-16 52.2 0.799999
    endloop
  endfacet
  facet normal 0 -1 0
    outer loop
      vertex -13.1 52.2 0.799999
      vertex -0.799999 52.2 1.2
      vertex -13.1 52.2 1.2
    endloop
  endfacet
  facet normal 0 -1 -0
    outer loop
      vertex -0.799999 52.2 1.2
      vertex -13.1 52.2 0.799999
      vertex -0.799999 52.2 0.799999
    endloop
  endfacet
  facet normal -1 0 0
    outer loop
      vertex -13.1 52.2 0.799999
      vertex -13.1 79.5 1.2
      vertex -13.1 79.5 0.799999
    endloop
  endfacet
  facet normal -1 -0 0
    outer loop
      vertex -13.1 79.5 1.2
      vertex -13.1 52.2 0.799999
      vertex -13.1 52.2 1.2
    endloop
  endfacet
  facet normal -0 0 1
    outer loop
      vertex -13.1 79.5 1.2
      vertex -0.799999 52.2 1.2
      vertex -0.799999 79.5 1.2
    endloop
  endfacet
  facet normal 0 0 1
    outer loop
      vertex -0.799999 52.2 1.2
      vertex -13.1 79.5 1.2
      vertex -13.1 52.2 1.2
    endloop
  endfacet
  facet normal 1 -0 0
    outer loop
      vertex -0.799999 52.2 1.2
      vertex -0.799999 79.5 0.799999
      vertex -0.799999 79.5 1.2
    endloop
  endfacet
  facet normal 1 0 0
    outer loop
      vertex -0.799999 79.5 0.799999
      vertex -0.799999 52.2 1.2
      vertex -0.799999 52.2 0.799999
    endloop
  endfacet
  facet normal -2.22045e-16 0 -1
    outer loop
      vertex -13.9 104.4 3.08642e-15
      vertex 0 131.7 0
      vertex 0 104.4 0
    endloop
  endfacet
  facet normal -2.22045e-16 0 -1
    outer loop
      vertex 0 131.7 0
      vertex -13.9 104.4 3.08642e-15
      vertex -13.9 131.7 3.08642e-15
    endloop
  endfacet
  facet normal -1 0 0
    outer loop
      vertex -13.9 104.4 3.08642e-15
      vertex -13.9 131.7 0.599999
      vertex -13.9 131.7 3.08642e-15
    endloop
  endfacet
  facet normal -1 -0 0
    outer loop
      vertex -13.9 131.7 0.599999
      vertex -13.9 104.4 3.08642e-15
      vertex -13.9 104.4 0.599999
    endloop
  endfacet
  facet normal -0 0 1
    outer loop
      vertex -13.9 131.7 0.599999
      vertex -13.1 104.4 0.599999
      vertex -13.1 131.7 0.599999
    endloop
  endfacet
  facet normal 0 0 1
    outer loop
      vertex -13.1 104.4 0.599999
      vertex -13.9 131.7 0.599999
      vertex -13.9 104.4 0.599999
    endloop
  endfacet
  facet normal -0 0 1
    outer loop
      vertex -0.799999 131.7 0.599999
      vertex 1.33227e-16 104.4 0.599999
      vertex 1.33227e-16 131.7 0.599999
    endloop
  endfacet
  facet normal 0 0 1
    outer loop
      vertex 1.33227e-16 104.4 0.599999
      vertex -0.799999 131.7 0.599999
      vertex -0.799999 104.4 0.599999
    endloop
  endfacet
  facet normal 0 1 -0
    outer loop
      vertex 0 131.7 0
      vertex -0.799999 131.7 0.599999
      vertex 1.33227e-16 131.7 0.599999
    endloop
  endfacet
  facet normal 0 1 0
    outer loop
      vertex -0.799999 131.7 0.599999
      vertex 0 131.7 0
      vertex -13.1 131.7 0.599999
    endloop
  endfacet
  facet normal 0 1 0
    outer loop
      vertex -13.1 131.7 0.599999
      vertex -13.9 131.7 3.08642e-15
      vertex -13.9 131.7 0.599999
    endloop
  endfacet
  facet normal 0 1 0
    outer loop
      vertex -13.1 131.7 0.599999
      vertex 0 131.7 0
      vertex -13.9 131.7 3.08642e-15
    endloop
  endfacet
  facet normal 0 1 -0
    outer loop
      vertex -0.799999 131.7 0.599999
      vertex -13.1 131.7 1.2
      vertex -0.799999 131.7 1.2
    endloop
  endfacet
  facet normal 0 1 0
    outer loop
      vertex -13.1 131.7 1.2
      vertex -0.799999 131.7 0.599999
      vertex -13.1 131.7 0.599999
    endloop
  endfacet
  facet normal 1 0 -2.22045e-16
    outer loop
      vertex 1.33227e-16 104.4 0.599999
      vertex 0 131.7 0
      vertex 1.33227e-16 131.7 0.599999
    endloop
  endfacet
  facet normal 1 0 -2.22045e-16
    outer loop
      vertex 0 131.7 0
      vertex 1.33227e-16 104.4 0.599999
      vertex 0 104.4 0
    endloop
  endfacet
  facet normal 0 -1 0
    outer loop
      vertex -13.9 104.4 3.08642e-15
      vertex -13.1 104.4 0.599999
      vertex -13.9 104.4 0.599999
    endloop
  endfacet
  facet normal 0 -1 -0
    outer loop
      vertex -13.1 104.4 0.599999
      vertex -13.9 104.4 3.08642e-15
      vertex -0.799999 104.4 0.599999
    endloop
  endfacet
  facet normal 0 -1 0
    outer loop
      vertex 0 104.4 0
      vertex -0.799999 104.4 0.599999
      vertex -13.9 104.4 3.08642e-15
    endloop
  endfacet
  facet normal 0 -1 0
    outer loop
      vertex -0.799999 104.4 0.599999
      vertex 0 104.4 0
      vertex 1.33227e-16 104.4 0.599999
    endloop
  endfacet
  facet normal 0 -1 0
    outer loop
      vertex -13.1 104.4 0.599999
      vertex -0.799999 104.4 1.2
      vertex -13.1 104.4 1.2
    endloop
  endfacet
  facet normal 0 -1 -0
    outer loop
      vertex -0.799999 104.4 1.2
      vertex -13.1 104.4 0.599999
      vertex -0.799999 104.4 0.599999
    endloop
  endfacet
  facet normal -1 0 0
    outer loop
      vertex -13.1 104.4 0.599999
      vertex -13.1 131.7 1.2
      vertex -13.1 131.7 0.599999
    endloop
  endfacet
  facet normal -1 -0 0
    outer loop
      vertex -13.1 131.7 1.2
      vertex -13.1 104.4 0.599999
      vertex -13.1 104.4 1.2
    endloop
  endfacet
  facet normal -0 0 1
    outer loop
      vertex -13.1 131.7 1.2
      vertex -0.799999 104.4 1.2
      vertex -0.799999 131.7 1.2
    endloop
  endfacet
  facet normal 0 0 1
    outer loop
      vertex -0.799999 104.4 1.2
      vertex -13.1 131.7 1.2
      vertex -13.1 104.4 1.2
    endloop
  endfacet
  facet normal 1 -0 0
    outer loop
      vertex -0.799999 104.4 1.2
      vertex -0.799999 131.7 0.599999
      vertex -0.799999 131.7 1.2
    endloop
  endfacet
  facet normal 1 0 0
    outer loop
      vertex -0.799999 131.7 0.599999
      vertex -0.799999 104.4 1.2
      vertex -0.799999 104.4 0.599999
    endloop
  endfacet
endsolid OpenSCAD_Model
